<?xml version="1.0" encoding="UTF-8" standalone="no"?>
<!-- Created with Inkscape (http://www.inkscape.org/) -->

<svg
   xmlns:dc="http://purl.org/dc/elements/1.1/"
   xmlns:cc="http://creativecommons.org/ns#"
   xmlns:rdf="http://www.w3.org/1999/02/22-rdf-syntax-ns#"
   xmlns:svg="http://www.w3.org/2000/svg"
   xmlns="http://www.w3.org/2000/svg"
   xmlns:xlink="http://www.w3.org/1999/xlink"
   xmlns:sodipodi="http://sodipodi.sourceforge.net/DTD/sodipodi-0.dtd"
   xmlns:inkscape="http://www.inkscape.org/namespaces/inkscape"
   width="40"
   height="43"
   id="svg2"
   version="1.1"
   inkscape:version="0.48.4 r9939"
   sodipodi:docname="113 sheriff nottingham walking.svg"
   inkscape:export-filename="/opt/devkitpro/homebrew/robin-hood/art/113 sheriff nottingham walking.png"
   inkscape:export-xdpi="90"
   inkscape:export-ydpi="90">
  <defs
     id="defs4">
    <linearGradient
       id="linearGradient3898">
      <stop
         style="stop-color:#818181;stop-opacity:1;"
         offset="0"
         id="stop3900" />
      <stop
         style="stop-color:#e4e4e4;stop-opacity:1;"
         offset="1"
         id="stop3902" />
    </linearGradient>
    <linearGradient
       inkscape:collect="always"
       xlink:href="#linearGradient3898"
       id="linearGradient3904"
       x1="53.411171"
       y1="788.09778"
       x2="56.201084"
       y2="788.09778"
       gradientUnits="userSpaceOnUse"
       gradientTransform="matrix(0.64678971,0.05463149,-0.18136906,0.87690458,161.48156,97.329914)" />
    <linearGradient
       inkscape:collect="always"
       xlink:href="#linearGradient3898-5"
       id="linearGradient3904-5"
       x1="53.411171"
       y1="788.09778"
       x2="56.201084"
       y2="788.09778"
       gradientUnits="userSpaceOnUse"
       gradientTransform="matrix(0.64678971,0.05463149,-0.18136906,0.87690458,161.48187,97.329609)" />
    <linearGradient
       id="linearGradient3898-5">
      <stop
         style="stop-color:#818181;stop-opacity:1;"
         offset="0"
         id="stop3900-8" />
      <stop
         style="stop-color:#e4e4e4;stop-opacity:1;"
         offset="1"
         id="stop3902-4" />
    </linearGradient>
    <linearGradient
       inkscape:collect="always"
       xlink:href="#linearGradient3898-5"
       id="linearGradient3706"
       gradientUnits="userSpaceOnUse"
       gradientTransform="matrix(0.64678971,0.05463149,-0.18136906,0.87690458,159.18187,97.329609)"
       x1="53.411171"
       y1="788.09778"
       x2="56.201084"
       y2="788.09778" />
    <linearGradient
       inkscape:collect="always"
       xlink:href="#linearGradient3898-5-1"
       id="linearGradient3904-5-7"
       x1="53.411171"
       y1="788.09778"
       x2="56.201084"
       y2="788.09778"
       gradientUnits="userSpaceOnUse"
       gradientTransform="matrix(0.7653608,0.09567064,-0.15484478,0.88611851,131.63318,87.989453)" />
    <linearGradient
       id="linearGradient3898-5-1">
      <stop
         style="stop-color:#818181;stop-opacity:1;"
         offset="0"
         id="stop3900-8-2" />
      <stop
         style="stop-color:#e4e4e4;stop-opacity:1;"
         offset="1"
         id="stop3902-4-9" />
    </linearGradient>
  </defs>
  <sodipodi:namedview
     id="base"
     pagecolor="#ffffff"
     bordercolor="#666666"
     borderopacity="1.0"
     inkscape:pageopacity="0.0"
     inkscape:pageshadow="2"
     inkscape:zoom="12.400008"
     inkscape:cx="27.296465"
     inkscape:cy="18.490094"
     inkscape:document-units="px"
     inkscape:current-layer="layer1"
     showgrid="false"
     inkscape:window-width="998"
     inkscape:window-height="739"
     inkscape:window-x="371"
     inkscape:window-y="120"
     inkscape:window-maximized="0"
     fit-margin-top="20"
     fit-margin-left="20"
     fit-margin-right="20"
     fit-margin-bottom="20" />
  <metadata
     id="metadata7">
    <rdf:RDF>
      <cc:Work
         rdf:about="">
        <dc:format>image/svg+xml</dc:format>
        <dc:type
           rdf:resource="http://purl.org/dc/dcmitype/StillImage" />
        <dc:title></dc:title>
      </cc:Work>
    </rdf:RDF>
  </metadata>
  <g
     inkscape:label="Ebene 1"
     inkscape:groupmode="layer"
     id="layer1"
     transform="translate(-18.034209,-765.85795)">
    <path
       style="fill:#0000f0;fill-opacity:1;stroke:#000000;stroke-width:0.42565927;stroke-linecap:butt;stroke-linejoin:miter;stroke-miterlimit:4;stroke-opacity:1;stroke-dasharray:none"
       d="m 32.10272,799.53302 c -1.351529,1.93955 -4.17402,5.84577 -2.170591,7.25621 2.324349,1.63637 4.358863,-1.99215 5.897739,-4.21153"
       id="path3947-5"
       inkscape:connector-curvature="0"
       sodipodi:nodetypes="csc" />
    <path
       style="fill:#aaaaaa;fill-opacity:1;stroke:#000000;stroke-width:0.42565927;stroke-linecap:butt;stroke-linejoin:miter;stroke-miterlimit:4;stroke-opacity:1;stroke-dasharray:none"
       d="m 27.818779,805.47203 c 1.685915,1.20715 2.411939,1.57874 4.623064,3.06763 0.905249,0.0228 1.080363,0.0501 1.702362,0.0135 0.516347,-1.01027 -0.0037,-1.3635 -1.227119,-2.49897 -0.894083,-0.82978 -2.118946,-1.69236 -3.691017,-2.70795 -0.649589,0.91262 -0.851857,1.3123 -1.40729,2.12576 z"
       id="path3999-2"
       inkscape:connector-curvature="0"
       sodipodi:nodetypes="cccscc" />
    <path
       style="fill:#0000f0;fill-opacity:1;stroke:#000000;stroke-width:0.42565927;stroke-linecap:butt;stroke-linejoin:miter;stroke-miterlimit:4;stroke-opacity:1;stroke-dasharray:none"
       d="m 43.176675,798.35823 c 1.325002,1.95777 4.735767,7.24562 2.713326,8.62866 -2.346407,1.60458 -4.331342,-2.05129 -5.839867,-4.29142"
       id="path3947-7-3"
       inkscape:connector-curvature="0"
       sodipodi:nodetypes="csc" />
    <path
       style="fill:#aaaaaa;fill-opacity:1;stroke:#000000;stroke-width:0.42565927;stroke-linecap:butt;stroke-linejoin:miter;stroke-miterlimit:4;stroke-opacity:1;stroke-dasharray:none"
       d="m 44.007275,808.53603 c 1.825129,-1.05783 2.47066,-1.59624 5.624407,-3.46547 -1.022074,-1.8204 -1.404433,-1.50887 -3.295417,-0.72965 -1.127804,0.46473 -2.423835,1.21615 -4.004143,2.21888 0.495009,0.86376 0.769928,1.23709 1.1804,1.90255 0.221151,0.22779 0.222932,0.23118 0.494753,0.0737 z"
       id="path3999-1-9"
       inkscape:connector-curvature="0"
       sodipodi:nodetypes="ccsccc" />
    <path
       style="fill:#787878;fill-opacity:1;stroke:#000000;stroke-width:0.42393318;stroke-linecap:butt;stroke-linejoin:miter;stroke-miterlimit:4;stroke-opacity:1;stroke-dasharray:none"
       d="m 46.485154,798.17153 c -0.005,-9.69258 -17.876694,-10.05226 -17.670458,0.11963 0.130175,6.4204 17.674298,6.63218 17.670458,-0.11963 z"
       id="path3982"
       inkscape:connector-curvature="0"
       sodipodi:nodetypes="sss" />
    <path
       style="fill:#ffe684;fill-opacity:1;stroke:#000000;stroke-width:0.42393318;stroke-linecap:butt;stroke-linejoin:miter;stroke-miterlimit:4;stroke-opacity:1;stroke-dasharray:none"
       d="m 44.347632,775.84997 c -1.374853,-3.15396 -14.55687,2.07679 -16.208853,6.26746 -2.991223,11.01701 9.685429,10.68265 17.762955,8.22517 0.179091,-4.16238 0.649979,-6.7666 -0.57801,-10.62922 -0.356338,-1.12085 -0.351634,-2.43088 -0.976092,-3.86341 z"
       id="path2996"
       inkscape:connector-curvature="0"
       sodipodi:nodetypes="sccss" />
    <path
       style="fill:#ffe684;fill-opacity:1;stroke:#000000;stroke-width:0.42393318;stroke-linecap:butt;stroke-linejoin:miter;stroke-miterlimit:4;stroke-opacity:1;stroke-dasharray:none"
       d="m 32.577848,780.7511 c -2.128576,0.003 -1.652257,2.73938 -1.436948,3.68584 0.20395,0.89655 1.172807,1.59217 2.08062,1.4577 0.524598,-0.0777 0.78539,-0.66171 0.852283,-1.15271 0.05908,-0.38499 0.07505,-0.78137 0.03456,-1.16817 -0.08021,-0.32422 -0.498004,-0.40881 -0.744012,-0.22058 -0.328828,0.16895 -0.346759,0.74378 0.0229,0.86863 1.003895,0.16577 0.748163,-1.30764 0.739029,-1.84657 -0.01111,-1.01902 -0.875121,-1.60286 -1.548439,-1.62414 z"
       id="path3023"
       inkscape:connector-curvature="0"
       sodipodi:nodetypes="csscccccc" />
    <path
       style="fill:#ffff42;fill-opacity:1;stroke:#000000;stroke-width:0.42393318;stroke-linecap:butt;stroke-linejoin:miter;stroke-miterlimit:4;stroke-opacity:1;stroke-dasharray:none"
       d="m 42.334274,775.8508 c -5.594255,-8.325 -18.526894,-5.12922 -18.871322,5.50703 -0.185061,5.71484 1.618789,7.23198 6.812844,5.93433 3.799931,-0.94935 1.629141,-9.2789 7.143023,-10.48689 1.806465,-0.39577 3.122315,-1.42413 4.915455,-0.95447 z"
       id="path3121"
       inkscape:connector-curvature="0"
       sodipodi:nodetypes="csssc" />
    <path
       style="fill:#ffe684;fill-opacity:1;stroke:#000000;stroke-width:0.42393318;stroke-linecap:butt;stroke-linejoin:miter;stroke-miterlimit:4;stroke-opacity:1;stroke-dasharray:none"
       d="m 45.019823,778.95556 c 2.698212,1.40034 3.411505,0.81213 4.550721,5.03612 -2.19524,0.23004 -3.43087,0.24125 -5.97485,0.32746"
       id="path3034"
       inkscape:connector-curvature="0"
       sodipodi:nodetypes="ccc" />
    <path
       style="fill:#000000;fill-opacity:1;stroke:#000000;stroke-width:0.42393318;stroke-linecap:butt;stroke-linejoin:miter;stroke-miterlimit:4;stroke-opacity:1;stroke-dasharray:none"
       d="m 41.654542,779.01538 c 0.1956,-0.76921 -0.65468,-0.98075 -0.75432,-0.41252 -0.12952,0.73868 0.61584,0.95708 0.75432,0.41252 z"
       id="path3046"
       inkscape:connector-curvature="0"
       sodipodi:nodetypes="sss"
       inkscape:transform-center-y="-2.8167466" />
    <path
       style="fill:none;stroke:#000000;stroke-width:0.42393318;stroke-linecap:butt;stroke-linejoin:miter;stroke-miterlimit:4;stroke-opacity:1;stroke-dasharray:none"
       d="m 41.165697,787.52684 c 2.318896,-0.0623 3.466978,0.0142 4.971127,0.15197"
       id="path3102"
       inkscape:connector-curvature="0"
       sodipodi:nodetypes="cc" />
    <path
       style="fill:#787878;fill-opacity:1;stroke:#000000;stroke-width:0.42393318;stroke-linecap:butt;stroke-linejoin:miter;stroke-miterlimit:4;stroke-opacity:1;stroke-dasharray:none"
       d="m 37.473194,792.43796 c 1.31087,1.85244 4.20998,6.27218 5.09101,6.2711 0.82325,-8.7e-4 2.65255,-0.55879 4.3361,-1.40839 0.63976,-0.32286 2.29943,-1.08291 2.81712,0.0818 0.53111,1.19486 -0.61298,1.69352 -2.36178,2.45607 -3.39516,1.48042 -4.98463,1.57707 -5.55496,1.57669 -0.97842,-6.5e-4 -3.68748,-4.14537 -6.171736,-7.32322"
       id="path4193"
       inkscape:connector-curvature="0"
       sodipodi:nodetypes="csssssc" />
    <path
       style="fill:#ffe785;fill-opacity:1;stroke:#000000;stroke-width:0.30529881;stroke-linecap:butt;stroke-linejoin:miter;stroke-miterlimit:4;stroke-opacity:1;stroke-dasharray:none"
       d="m 48.258574,796.75519 c -0.83595,0.29847 0.39478,2.32123 1.06149,2.03584 1.2205,-0.52243 0.47961,-2.58609 -1.06149,-2.03584 z"
       id="path4030-6"
       inkscape:connector-curvature="0"
       sodipodi:nodetypes="sss" />
    <path
       style="fill:url(#linearGradient3904-5-7);fill-opacity:1;stroke:#000000;stroke-width:0.35296935;stroke-linecap:butt;stroke-linejoin:round;stroke-miterlimit:4;stroke-opacity:1;stroke-dasharray:none"
       d="m 49.790168,795.91476 c 0.636048,-2.3009 0.946696,-3.98298 0.606458,-11.1049 3.101565,5.87099 1.568751,9.73426 0.997541,11.65911 -1.004428,-0.24469 -1.044151,-0.33092 -1.603999,-0.55421 z"
       id="path3108"
       inkscape:connector-curvature="0"
       sodipodi:nodetypes="cccc" />
    <path
       style="fill:#804800;fill-opacity:1;stroke:#000000;stroke-width:0.35296935;stroke-linecap:butt;stroke-linejoin:miter;stroke-miterlimit:4;stroke-opacity:1;stroke-dasharray:none"
       d="m 49.60363,795.80963 c -0.335524,1.19281 -1.477227,2.4362 -0.351371,3.02661 1.242824,0.65176 1.722112,-0.96087 2.28327,-2.30193 -0.406588,-0.21548 -1.540193,-0.56323 -1.931918,-0.72462 z"
       id="path3095"
       inkscape:connector-curvature="0"
       sodipodi:nodetypes="csccc" />
    <g
       id="g4132"
       transform="matrix(0.9575573,0,0,1,2.0683743,-3.1077211e-4)">
      <path
         sodipodi:nodetypes="ccc"
         inkscape:connector-curvature="0"
         id="path3078"
         d="m 44.757228,776.14651 c -19.762878,-0.0373 -1.101577,-0.12284 -21.111051,0.13926 0.170465,-13.43505 21.296378,-12.80313 21.111051,-0.13926 z"
         style="fill:#787878;fill-opacity:1;stroke:#000000;stroke-width:0.42399999;stroke-linecap:butt;stroke-linejoin:miter;stroke-miterlimit:4;stroke-opacity:1;stroke-dasharray:none" />
      <path
         sodipodi:nodetypes="cc"
         inkscape:connector-curvature="0"
         id="path3912"
         d="m 32.030878,766.82156 c 0.464805,3.19743 4.177927,3.08342 4.682481,0.0751"
         style="fill:none;stroke:#323232;stroke-width:1px;stroke-linecap:butt;stroke-linejoin:miter;stroke-opacity:1" />
      <path
         sodipodi:nodetypes="cc"
         inkscape:connector-curvature="0"
         id="path3926"
         d="m 32.33653,768.39653 c -1.842503,0.62515 -4.941113,3.9757 -4.896339,7.6368"
         style="fill:none;stroke:#323232;stroke-width:1px;stroke-linecap:butt;stroke-linejoin:miter;stroke-opacity:1" />
      <path
         sodipodi:nodetypes="cc"
         inkscape:connector-curvature="0"
         id="path3926-6"
         d="m 36.396114,768.29008 c 1.648028,0.7207 4.33608,3.9757 4.291306,7.6368"
         style="fill:none;stroke:#323232;stroke-width:1px;stroke-linecap:butt;stroke-linejoin:miter;stroke-opacity:1" />
      <path
         sodipodi:nodetypes="cc"
         inkscape:connector-curvature="0"
         id="path3953"
         d="m 34.377458,769.3025 c 0.03235,2.34925 -0.02063,4.25823 0.01076,6.59781"
         style="fill:none;stroke:#323232;stroke-width:1px;stroke-linecap:butt;stroke-linejoin:miter;stroke-opacity:1" />
    </g>
  </g>
</svg>
